<mxfile host="app.diagrams.net" modified="2020-11-13T08:29:03.463Z" agent="5.0 (X11; Linux x86_64) AppleWebKit/537.36 (KHTML, like Gecko) Chrome/86.0.4240.111 Safari/537.36" etag="xnWPA2qUIg9MGM2E80YF" version="13.9.7" type="github">
  <diagram id="RGmuP8ZJhRJHKTzaO2U-" name="Page-1">
    <mxGraphModel dx="717" dy="721" grid="1" gridSize="10" guides="1" tooltips="1" connect="1" arrows="1" fold="1" page="1" pageScale="1" pageWidth="850" pageHeight="1100" math="0" shadow="0">
      <root>
        <mxCell id="0" />
        <mxCell id="1" parent="0" />
        <mxCell id="hgdKg6oaY1Hrjd21EYKv-1" value="" style="whiteSpace=wrap;html=1;aspect=fixed;strokeColor=#d6b656;fillColor=#fff2cc;" vertex="1" parent="1">
          <mxGeometry x="10" y="80" width="320" height="320" as="geometry" />
        </mxCell>
        <mxCell id="hgdKg6oaY1Hrjd21EYKv-2" value="" style="whiteSpace=wrap;html=1;aspect=fixed;strokeColor=#d6b656;fillColor=#fff2cc;" vertex="1" parent="1">
          <mxGeometry x="390" y="80" width="320" height="320" as="geometry" />
        </mxCell>
        <mxCell id="hgdKg6oaY1Hrjd21EYKv-3" value="" style="rounded=0;whiteSpace=wrap;html=1;strokeColor=#b85450;fillColor=#f8cecc;" vertex="1" parent="1">
          <mxGeometry x="30" y="260" width="150" height="60" as="geometry" />
        </mxCell>
        <mxCell id="hgdKg6oaY1Hrjd21EYKv-4" value="" style="rounded=0;whiteSpace=wrap;html=1;strokeColor=#b85450;fillColor=#f8cecc;" vertex="1" parent="1">
          <mxGeometry x="410" y="260" width="150" height="60" as="geometry" />
        </mxCell>
        <mxCell id="hgdKg6oaY1Hrjd21EYKv-5" value="VM1" style="fontColor=#0066CC;verticalAlign=top;verticalLabelPosition=bottom;labelPosition=center;align=center;html=1;outlineConnect=0;fillColor=#CCCCCC;strokeColor=#6881B3;gradientColor=none;gradientDirection=north;strokeWidth=2;shape=mxgraph.networks.monitor;" vertex="1" parent="1">
          <mxGeometry x="70" y="100" width="60" height="50" as="geometry" />
        </mxCell>
        <mxCell id="hgdKg6oaY1Hrjd21EYKv-6" value="" style="fontColor=#0066CC;verticalAlign=top;verticalLabelPosition=bottom;labelPosition=center;align=center;html=1;outlineConnect=0;fillColor=#CCCCCC;strokeColor=#6881B3;gradientColor=none;gradientDirection=north;strokeWidth=2;shape=mxgraph.networks.monitor;" vertex="1" parent="1">
          <mxGeometry x="420" y="100" width="60" height="50" as="geometry" />
        </mxCell>
        <mxCell id="hgdKg6oaY1Hrjd21EYKv-7" value="" style="rounded=0;whiteSpace=wrap;html=1;strokeColor=#FFFF99;" vertex="1" parent="1">
          <mxGeometry x="30" y="275" width="30" height="30" as="geometry" />
        </mxCell>
        <mxCell id="hgdKg6oaY1Hrjd21EYKv-8" value="Vnet0" style="rounded=0;whiteSpace=wrap;html=1;strokeColor=#FFFF99;" vertex="1" parent="1">
          <mxGeometry x="90" y="275" width="30" height="30" as="geometry" />
        </mxCell>
        <mxCell id="hgdKg6oaY1Hrjd21EYKv-9" value="" style="rounded=0;whiteSpace=wrap;html=1;strokeColor=#FFFF99;" vertex="1" parent="1">
          <mxGeometry x="150" y="275" width="30" height="30" as="geometry" />
        </mxCell>
        <mxCell id="hgdKg6oaY1Hrjd21EYKv-11" value="" style="rounded=0;whiteSpace=wrap;html=1;strokeColor=#FFFF99;" vertex="1" parent="1">
          <mxGeometry x="410" y="275" width="30" height="30" as="geometry" />
        </mxCell>
        <mxCell id="hgdKg6oaY1Hrjd21EYKv-12" value="" style="rounded=0;whiteSpace=wrap;html=1;strokeColor=#FFFF99;" vertex="1" parent="1">
          <mxGeometry x="470" y="275" width="30" height="30" as="geometry" />
        </mxCell>
        <mxCell id="hgdKg6oaY1Hrjd21EYKv-13" value="" style="rounded=0;whiteSpace=wrap;html=1;strokeColor=#FFFF99;" vertex="1" parent="1">
          <mxGeometry x="530" y="275" width="30" height="30" as="geometry" />
        </mxCell>
      </root>
    </mxGraphModel>
  </diagram>
</mxfile>
